<svg xmlns:dc="http://purl.org/dc/elements/1.1/" xmlns:cc="http://creativecommons.org/ns#" xmlns:rdf="http://www.w3.org/1999/02/22-rdf-syntax-ns#" xmlns:svg="http://www.w3.org/2000/svg" xmlns="http://www.w3.org/2000/svg" id="svg6" version="1.1" viewBox="0 0 22 22" height="22" width="22">
  <path id="path2" d="M 11,1 C 5.5044539,1 1,5.068954 1,10.130435 c 0,2.147206 0.8226516,4.119885 2.1747622,5.674253 0.1704484,0.285171 0.1935864,0.631405 0.097656,1.05214 -0.096007,0.421071 -0.3160462,0.891053 -0.5731995,1.327276 -0.2571536,0.436221 -0.5489419,0.838949 -0.7795517,1.148947 -0.1153059,0.154998 -0.2147395,0.286295 -0.2921195,0.394871 -0.038691,0.05429 -0.071795,0.102263 -0.1027525,0.154551 -0.030956,0.05229 -0.090015,0.05427 -0.090015,0.290421 0,0.180825 0.064101,0.399018 0.2377719,0.568954 C 1.8462254,20.911784 2.1051482,21 2.3892662,21 4.3914694,21 6.2105044,19.521177 7.5998645,18.700408 8.6627766,19.051943 9.8040821,19.26087 11,19.26087 c 5.495546,0 9.999999,-4.068954 9.999999,-9.130435 C 21,5.068954 16.495546,1 11,1 Z m 0,0.869565 c 5.068313,0 9.130434,3.716373 9.130434,8.26087 0,4.544497 -4.062121,8.26087 -9.130434,8.26087 -1.1742719,0 -2.2969069,-0.203849 -3.3262568,-0.568105 L 7.4860747,17.75696 7.312841,17.85546 C 5.8029481,18.717504 3.9967758,20.110797 2.4147433,20.125331 2.4741914,20.044701 2.5328621,19.966785 2.6176976,19.852743 2.853768,19.535405 3.1642108,19.108266 3.4482005,18.62652 3.7321902,18.144773 3.992524,17.609109 4.1199056,17.050433 4.2472865,16.491757 4.2361085,15.884527 3.9203461,15.357158 l -0.020378,-0.03482 -0.027175,-0.02972 C 2.6170366,13.873643 1.8695651,12.082545 1.8695651,10.130435 1.8695651,5.585938 5.9316871,1.869565 11,1.869565 Z M 7.4376701,4.823879 a 0.43482609,0.43482609 0 0 0 -0.044158,8.7e-4 0.43482609,0.43482609 0 0 0 -0.3838314,0.292119 l -1.9565216,5.652174 a 0.43492221,0.4349222 0 1 0 0.822011,0.284477 l 0.3192934,-0.923084 h 2.4227238 a 0.43482609,0.43482609 0 0 0 0.028874,-8.7e-4 l 0.3201423,0.923914 A 0.43492243,0.43492242 0 1 0 9.7882151,10.769002 L 7.8316932,5.116828 A 0.43482609,0.43482609 0 0 0 7.4376715,4.823859 Z M 7.4206961,6.588485 8.3454582,9.26087 H 6.4959339 Z M 14.471477,8.38536 a 0.43482609,0.43482609 0 0 0 -0.427989,0.440727 v 0.869565 h -2.173923 a 0.43482609,0.43482609 0 1 0 0,0.869566 h 2.535666 a 0.43482609,0.43482609 0 0 0 0.141813,0 h 1.119226 c -0.166758,0.555274 -0.625365,1.481894 -1.477581,2.359035 -0.688276,-0.697215 -1.039402,-1.280571 -1.039402,-1.280571 a 0.43482609,0.43482609 0 1 0 -0.765965,0.411006 c 0,0 0.402405,0.668921 1.178668,1.460597 -0.500776,0.378932 -1.085118,0.730127 -1.83339,0.986754 a 0.43482609,0.43482609 0 1 0 0.28193,0.82201 c 0.89636,-0.307414 1.599794,-0.740722 2.188349,-1.214334 0.504178,0.421425 1.088908,0.840228 1.830842,1.195652 a 0.43489971,0.43489971 0 1 0 0.37534,-0.784647 c -0.644645,-0.308817 -1.159362,-0.666298 -1.600713,-1.025815 1.144912,-1.206051 1.614129,-2.397748 1.746773,-2.929687 h 0.535836 a 0.43482609,0.43482609 0 1 0 0,-0.869566 h -0.797385 a 0.43482609,0.43482609 0 0 0 -0.142662,0 H 14.913045 V 8.826087 A 0.43482609,0.43482609 0 0 0 14.471468,8.38536 Z" />
</svg>
