<svg height="30" width="20" viewBox="0 0 20 30" y="0px" x="0px"> <g transform="translate(0,-455.63199)" id="g40" /><g transform="translate(0,-455.63199)" id="g42" /><g transform="translate(0,-455.63199)" id="g44" /><g transform="translate(0,-455.63199)" id="g46" /><g transform="translate(0,-455.63199)" id="g48" /><g transform="translate(0,-455.63199)" id="g50" /><g transform="translate(0,-455.63199)" id="g52" /><g transform="translate(0,-455.63199)" id="g54" /><g transform="translate(0,-455.63199)" id="g56" /><g transform="translate(0,-455.63199)" id="g58" /><g transform="translate(0,-455.63199)" id="g60" /><g transform="translate(0,-455.63199)" id="g62" /><g transform="translate(0,-455.63199)" id="g64" /><g transform="translate(0,-455.63199)" id="g66" /><g transform="translate(0,-455.63199)" id="g68" /><g transform="translate(0,-455.63199)" id="layer1"><g transform="matrix(0.05529883,0,0,0.05683293,-3.4332284,457.2608)" style="display:inline;fill-opacity:1;stroke:#000000;stroke-opacity:1;stroke-width:21.40539525;stroke-miterlimit:4;stroke-dasharray:none;fill-rule:evenodd" id="g38"><g style="fill-opacity:1;stroke:#000000;stroke-opacity:1;stroke-width:21.40539525;stroke-miterlimit:4;stroke-dasharray:none;fill-rule:evenodd" id="g6"><g style="fill-opacity:1;stroke:#000000;stroke-opacity:1;stroke-width:21.40539525;stroke-miterlimit:4;stroke-dasharray:none;fill-rule:evenodd" id="g4"><path id="path2" d="m 242.81641,-10.703125 c -99.90163,0 -181.123051,81.222356 -181.123051,181.123045 0,7.74583 0.618986,15.19723 1.533203,22.44141 7.670173,69.86386 48.090188,142.31398 86.205078,197.98437 37.91873,55.3839 73.95552,94.02841 74.35742,94.45899 3.36848,3.76387 7.01069,6.41295 10.27539,8.16992 l 0.14258,0.0762 1.00977,0.50586 8.81445,2.80664 8.81445,-2.80664 1.01368,-0.50586 0.14257,-0.0781 c 3.45425,-1.86043 6.91255,-4.52506 10.17578,-8.06055 l 0.008,-0.008 0.008,-0.01 c 0,0 35.84363,-38.98995 73.4082,-94.75586 37.54538,-55.73741 77.33988,-128.25974 84.83399,-198.08984 0.88221,-7.13724 1.5039,-14.5196 1.5039,-22.16016 v -0.002 -0.002 C 423.90655,70.516489 342.71804,-10.703125 242.81641,-10.703125 Z m 0,21.40625 c 88.33237,0 159.6877,71.38573 159.71679,159.689455 -2.1e-4,6.49945 -0.53258,13.01572 -1.34765,19.5957 l -0.0117,0.0898 -0.01,0.0879 c -6.76212,63.28595 -44.68927,134.14233 -81.31445,188.51367 -36.62518,54.37134 -71.41602,92.23047 -71.41602,92.23047 -1.61271,1.74419 -2.90933,2.69549 -4.07812,3.38476 l -0.32422,0.10352 -0.34961,-0.11133 c -1.25585,-0.72461 -2.43075,-1.56423 -3.95117,-3.26563 l -0.0781,-0.0879 -0.082,-0.0879 c 0,0 -35.30074,-37.79299 -72.47656,-92.09179 C 129.91793,324.4551 91.410707,253.67185 84.494141,190.44336 l -0.0098,-0.0898 -0.01172,-0.0899 c -0.84164,-6.65001 -1.373047,-13.21114 -1.373047,-19.84375 0,-88.331307 71.384431,-159.716795 159.716801,-159.716795 z" style="color:#000000;font-style:normal;font-variant:normal;font-weight:normal;font-stretch:normal;font-size:medium;line-height:normal;font-family:sans-serif;font-variant-ligatures:normal;font-variant-position:normal;font-variant-caps:normal;font-variant-numeric:normal;font-variant-alternates:normal;font-feature-settings:normal;text-indent:0;text-align:start;text-decoration:none;text-decoration-line:none;text-decoration-style:solid;text-decoration-color:#000000;letter-spacing:normal;word-spacing:normal;text-transform:none;writing-mode:lr-tb;direction:ltr;text-orientation:mixed;dominant-baseline:auto;baseline-shift:baseline;text-anchor:start;white-space:normal;shape-padding:0;clip-rule:nonzero;display:inline;overflow:visible;visibility:visible;opacity:1;isolation:auto;mix-blend-mode:normal;color-interpolation:sRGB;color-interpolation-filters:linearRGB;solid-color:#000000;solid-opacity:1;vector-effect:none;fill-opacity:1;fill-rule:evenodd;stroke:none;stroke-width:21.40539551;stroke-linecap:butt;stroke-linejoin:miter;stroke-miterlimit:4;stroke-dasharray:none;stroke-dashoffset:0;stroke-opacity:1;color-rendering:auto;image-rendering:auto;shape-rendering:auto;text-rendering:auto;enable-background:accumulate;" /></g></g><g style="fill-opacity:1;stroke:#000000;stroke-opacity:1;stroke-width:21.40539525;stroke-miterlimit:4;stroke-dasharray:none;fill-rule:evenodd" id="g8" /><g style="fill-opacity:1;stroke:#000000;stroke-opacity:1;stroke-width:21.40539525;stroke-miterlimit:4;stroke-dasharray:none;fill-rule:evenodd" id="g10" /><g style="fill-opacity:1;stroke:#000000;stroke-opacity:1;stroke-width:21.40539525;stroke-miterlimit:4;stroke-dasharray:none;fill-rule:evenodd" id="g12" /><g style="fill-opacity:1;stroke:#000000;stroke-opacity:1;stroke-width:21.40539525;stroke-miterlimit:4;stroke-dasharray:none;fill-rule:evenodd" id="g14" /><g style="fill-opacity:1;stroke:#000000;stroke-opacity:1;stroke-width:21.40539525;stroke-miterlimit:4;stroke-dasharray:none;fill-rule:evenodd" id="g16" /><g style="fill-opacity:1;stroke:#000000;stroke-opacity:1;stroke-width:21.40539525;stroke-miterlimit:4;stroke-dasharray:none;fill-rule:evenodd" id="g18" /><g style="fill-opacity:1;stroke:#000000;stroke-opacity:1;stroke-width:21.40539525;stroke-miterlimit:4;stroke-dasharray:none;fill-rule:evenodd" id="g20" /><g style="fill-opacity:1;stroke:#000000;stroke-opacity:1;stroke-width:21.40539525;stroke-miterlimit:4;stroke-dasharray:none;fill-rule:evenodd" id="g22" /><g style="fill-opacity:1;stroke:#000000;stroke-opacity:1;stroke-width:21.40539525;stroke-miterlimit:4;stroke-dasharray:none;fill-rule:evenodd" id="g24" /><g style="fill-opacity:1;stroke:#000000;stroke-opacity:1;stroke-width:21.40539525;stroke-miterlimit:4;stroke-dasharray:none;fill-rule:evenodd" id="g26" /><g style="fill-opacity:1;stroke:#000000;stroke-opacity:1;stroke-width:21.40539525;stroke-miterlimit:4;stroke-dasharray:none;fill-rule:evenodd" id="g28" /><g style="fill-opacity:1;stroke:#000000;stroke-opacity:1;stroke-width:21.40539525;stroke-miterlimit:4;stroke-dasharray:none;fill-rule:evenodd" id="g30" /><g style="fill-opacity:1;stroke:#000000;stroke-opacity:1;stroke-width:21.40539525;stroke-miterlimit:4;stroke-dasharray:none;fill-rule:evenodd" id="g32" /><g style="fill-opacity:1;stroke:#000000;stroke-opacity:1;stroke-width:21.40539525;stroke-miterlimit:4;stroke-dasharray:none;fill-rule:evenodd" id="g34" /><g style="fill-opacity:1;stroke:#000000;stroke-opacity:1;stroke-width:21.40539525;stroke-miterlimit:4;stroke-dasharray:none;fill-rule:evenodd" id="g36" /></g></g><g style="display:inline" transform="translate(0,-455.63199)" id="layer2" /><g style="display:inline" transform="translate(0,-455.63199)" id="layer3"><path d="m 17.418147,467.06098 c 0,-4.2464 -3.349506,-7.68901 -7.4810608,-7.68901 -4.131467,0 -7.481045,3.44261 -7.481045,7.68901 0,4.24641 3.349578,7.68904 7.481045,7.68904 4.1315548,0 7.4810608,-3.44263 7.4810608,-7.68904 m -7.4810608,6.50486 c -1.585195,0 -3.033186,-0.60012 -4.143304,-1.59016 h 0.0848 0.360477 7.2685738 0.488274 0.08491 c -1.110479,0.99004 -2.558466,1.59016 -4.1437338,1.59016 m 0,-5.55198 2.3465178,2.77362 H 7.5909692 Z m 0,-1.90686 -2.345051,-2.77252 H 12.28206 Z m -4.591099,-3.52108 3.78471,4.47434 -3.785122,4.47506 c -1.076105,-1.16612 -1.737372,-2.74016 -1.737372,-4.47434 0,-1.7342 0.661605,-3.30897 1.737784,-4.47506 m 4.591099,-2.02985 c 1.5852678,0 3.0332548,0.60018 4.1437338,1.58987 H 13.28732 v 3.2e-4 H 6.5872102 v -3.2e-4 h -0.793438 c 1.110118,-0.98969 2.55811,-1.58987 4.143304,-1.58987 m 6.3289758,6.50491 c 0,1.73418 -0.661305,3.30822 -1.737449,4.47434 l -3.785156,-4.47506 3.784801,-4.47434 c 1.076499,1.16609 1.737804,2.74086 1.737804,4.47506" style="display:inline;fill-opacity:1;fill-rule:evenodd;stroke:none;stroke-opacity:1;" id="path917" /></g></svg>
