<svg
   xmlns:dc="http://purl.org/dc/elements/1.1/"
   xmlns:cc="http://creativecommons.org/ns#"
   xmlns:rdf="http://www.w3.org/1999/02/22-rdf-syntax-ns#"
   xmlns:svg="http://www.w3.org/2000/svg"
   xmlns="http://www.w3.org/2000/svg"
   id="svg905"
   version="1.1"
   viewBox="0 0 30 30"
   height="30mm"
   width="30mm">
  <defs
     id="defs899" />
  <metadata
     id="metadata902">
    <rdf:RDF>
      <cc:Work
         rdf:about="">
        <dc:format>image/svg+xml</dc:format>
        <dc:type
           rdf:resource="http://purl.org/dc/dcmitype/StillImage" />
        <dc:title></dc:title>
      </cc:Work>
    </rdf:RDF>
  </metadata>
  <g
     transform="translate(0,-267)"
     id="layer1">
    <path
       d="m 29.999999,281.99997 c 0,-8.28399 -6.71598,-14.99996 -15.000018,-14.99996 C 6.7161241,267.00001 0,273.71598 0,281.99997 c 0,8.28399 6.7161241,15.00004 14.999981,15.00004 8.284038,0 15.000018,-6.71605 15.000018,-15.00004 m -15.000018,12.68984 c -3.178418,0 -6.0817326,-1.17069 -8.3075956,-3.10208 h 0.1700541 0.7227757 14.5739668 0.979024 0.170235 c -2.226582,1.93139 -5.129897,3.10208 -8.30846,3.10208 m 0,-10.83091 4.704922,5.41084 h -9.409017 z m 0,-3.72 -4.701976,-5.4087 h 9.403809 z m -9.2054546,-6.86897 7.5885916,8.72861 -7.5894173,8.73008 C 3.6360395,288.45377 2.310154,285.3831 2.310154,281.99997 c 0,-3.38313 1.3265676,-6.45523 3.4843724,-8.73004 m 9.2054546,-3.95991 c 3.178563,0 6.081878,1.17081 8.30846,3.10156 h -1.591006 v 7.2e-4 H 8.283282 v -7.2e-4 H 6.6923854 c 2.225863,-1.93075 5.1291776,-3.10156 8.3075956,-3.10156 m 12.690008,12.68995 c 0,3.38313 -1.325957,6.4538 -3.48369,8.72865 l -7.589489,-8.73008 7.58877,-8.72861 c 2.158452,2.27481 3.484409,5.34691 3.484409,8.73004"
       style="fill-opacity:1;fill-rule:nonzero;stroke:none;stroke-width:0.03527777"
       id="path864" />
  </g>
</svg>
