<?xml version="1.0" encoding="UTF-8"?>
<svg xmlns="http://www.w3.org/2000/svg" xmlns:xlink="http://www.w3.org/1999/xlink" width="50px" height="50px" viewBox="0 0 50 50" version="1.1">
<g id="surface180616">
<path style="fill:none;stroke-width:2;stroke-linecap:round;stroke-linejoin:miter;stroke:rgb(0%,0%,0%);stroke-opacity:1;stroke-miterlimit:10;" d="M 25 3 C 12.851562 3 3 11.953125 3 23 C 3 27.746094 4.824219 32.105469 7.859375 35.535156 C 10.097656 39.273438 4 45.601562 4 46.097656 C 4 46.480469 4.257812 47 5.195312 47 C 9.394531 47 13.65625 43.554688 17.015625 41.636719 C 19.488281 42.511719 22.183594 43 25 43 C 37.148438 43 47 34.046875 47 23 C 47 11.953125 37.148438 3 25 3 Z M 27 23 L 39 23 M 29.0625 26.953125 C 29.0625 26.953125 31.40625 31.320312 37 34 M 37 23 C 37 23 35.792969 30.984375 27 34 M 33 23 L 33 20 M 13.390625 22 L 19.519531 22 "/>
<path style="fill:none;stroke-width:2;stroke-linecap:round;stroke-linejoin:round;stroke:rgb(0%,0%,0%);stroke-opacity:1;stroke-miterlimit:10;" d="M 12 26 L 16.5 13 L 21 26 "/>
</g>
</svg>